/* XPM */
static char * xm_error[] = {
"64 64 5 1",
" 	c #ffffff",
".	c #000000",
"+	c #550000",
"@	c #aa0000",
"#	c #ff0000",
"                                                                ",
"                                                                ",
"                         ..++++++++++....                       ",
"                     ..+++@@@@@@@@@@@@+++....                   ",
"                   .++@@@@@@@@@@@@@@@@@@@@++...                 ",
"                 .++@@@@@@@@@@@@@@@@@@@@@@@@++...               ",
"               .++@@@@@@@@@@@@@@@@@@@@@@@@@@@@++...             ",
"              ++@@@@@@@@@@@@@@@@@@@@@@@@@@@@@@@@+...            ",
"            .+@@@@@@@@@@@@@+++....++++@@@@@@@@@@@@+...          ",
"           .+@@@@@@@@@@@++.............++@@@@@@@@@@+...         ",
"          .+@@@@@@@@@@+...................+@@@@@@@@@+...        ",
"         .+@@@@@@@@@@+......................+@@@@@@@@+...       ",
"        .+@@@@@@@@@+.........         .......+@@@@@@@@+...      ",
"        +@@@@@@@@@@........              ......+@@@@@@@+...     ",
"       +@@@@@@@@@@@@+....                  .....+@@@@@@@+...    ",
"      .+@@@@@@@@@@@@@+...                    ....+@@@@@@+...    ",
"      +@@@@@@@@@@@@@@@+...                    ....+@@@@@@+...   ",
"     +@@@@@@@@@@@@@@@@@+...                     ...+@@@@@@+...  ",
"    .+@@@@@@@++@@@@@@@@@+...                     ..+@@@@@@+...  ",
"    +@@@@@@@@..+@@@@@@@@@+...                     ..+@@@@@@+... ",
"    +@@@@@@@+...+@@@@@@@@@+...                     ..+@@@@@+... ",
"   .@@@@@@@+.....+@@@@@@@@@+...                    ..+@@@@@@....",
"   +@@@@@@@.......+@@@@@@@@@+...                    ..+@@@@@+...",
"  .+@@@@@@+........@@@@@@@@@@+...                    .+@@@@@+...",
"  .@@@@@@@.....  ...@@@@@@@@@@+...                   ..+@@@@@...",
"  +@@@@@@+....    ...@@@@@@@@#@+...                   .+@@@@@+..",
"  +@@@@@@+....     ..+@@@@@####@+...                  .+@@@@@+..",
"  +@@@@@@+....      ..+@@@######@+...                  .@@@@@+..",
" .+@@@@@@....        ..+@########@+...                 .+@@@@+..",
" .+@@@@@@....         ..+@########@+...                .+@@@@@..",
" .@@@@@@@....          ..+@########@+...                +@@@@@..",
" .@@@@@@@....          ...+@########@+...               +@@@@@..",
" .@@@@@@@....           ...+@########@+...              +@@@@@..",
" .@@@@@@@....            ...+@########@+...             +@@@@@..",
" .+@@@@@@....             ...+@########@+...            +@@@@@..",
" .+@@@@@@+...              ...+@#######@@+...           +@@@@+..",
" .+@@@@@@+...               ...+@#####@@@@+...         .+@@@@+..",
"  +@@@@@@+...                ...+@###@@@@@@+...        +@@@@@+..",
"  +@@@@@@@....                ...+@#@@@@@@@@+...       +@@@@@+..",
"  .@@@@@@@+...                 ...+@@@@@@@@@@+...     .+@@@@@...",
"  .+@@@@@@+...                  ...+@@@@@@@@@@+...    +@@@@@+...",
"  .+@@@@@@@+...                  ...+@@@@@@@@@@+...  .+@@@@@+...",
"  ..@@@@@@@+...                   ...+@@@@@@@@@@+... +@@@@@@....",
"   .+@@@@@@@+...                   ...+@@@@@@@@@@+..+@@@@@@+....",
"   .+@@@@@@@@...                    ...+@@@@@@@@@@+.+@@@@@@+....",
"   ..+@@@@@@@+...                    ...+@@@@@@@@@@+@@@@@@+.....",
"    .+@@@@@@@@+...                    ...+@@@@@@@@@@@@@@@@+.... ",
"    ..+@@@@@@@@+...                    ...+@@@@@@@@@@@@@@+..... ",
"     ..+@@@@@@@@+...                    ...+@@@@@@@@@@@@@.....  ",
"     ..+@@@@@@@@@+...                    ...+@@@@@@@@@@@+.....  ",
"      ..+@@@@@@@@@+...                    ...@@@@@@@@@@+.....   ",
"       ..+@@@@@@@@@+...                    +@@@@@@@@@@+.....    ",
"       ...+@@@@@@@@@@+...                .+@@@@@@@@@@+......    ",
"        ...+@@@@@@@@@@++...            .++@@@@@@@@@@+......     ",
"         ...+@@@@@@@@@@@+++...       .++@@@@@@@@@@@+......      ",
"          ...+@@@@@@@@@@@@@@+++++++++@@@@@@@@@@@@@+......       ",
"           ....+@@@@@@@@@@@@@@@@@@@@@@@@@@@@@@@@+.......        ",
"            ....++@@@@@@@@@@@@@@@@@@@@@@@@@@@@@+.......         ",
"             .....++@@@@@@@@@@@@@@@@@@@@@@@@@+........          ",
"               .....++@@@@@@@@@@@@@@@@@@@@++.........           ",
"                .......++@@@@@@@@@@@@@@++..........             ",
"                  .........++++++++++............               ",
"                    ...........................                 ",
"                      .......................                   "};
