<?xml version="1.0" encoding="UTF-8"?>
<!DOCTYPE svg PUBLIC "-//W3C//DTD SVG 1.1//EN" "http://www.w3.org/Graphics/SVG/1.1/DTD/svg11.dtd">
<!--
	Motif

	Copyright (c) 2025 Tim Hentenaar
	SPDX-License-Identifier: CC-BY-SA-4.0
-->
<svg width="256" height="256" version="1.1" viewBox="0 0 256 256" xmlns="http://www.w3.org/2000/svg" xmlns:xlink="http://www.w3.org/1999/xlink"><defs><radialGradient id="radialGradient3" cx="128" cy="128" r="121" gradientTransform="matrix(1 0 0 .986 0 1.82)" gradientUnits="userSpaceOnUse"><stop stop-color="#e00" offset="0"/><stop stop-color="#a00" stop-opacity=".667" offset="1"/></radialGradient><filter id="filter10" x="-.0319" y="-.0324" width="1.09" height="1.09" color-interpolation-filters="sRGB"><feFlood flood-color="rgb(0,0,0)" flood-opacity=".498" in="SourceGraphic" result="flood"/><feGaussianBlur in="SourceGraphic" result="blur" stdDeviation="3.000000"/><feOffset dx="6.000000" dy="6.000000" in="blur" result="offset"/><feComposite in="flood" in2="offset" operator="in" result="comp1"/><feComposite in="SourceGraphic" in2="comp1" result="comp2"/></filter></defs><path d="m128 9.43a121 119 0 0 0-121 119 121 119 0 0 0 121 119 121 119 0 0 0 121-119 121 119 0 0 0-121-119zm-4.6 23.2a91.2 79.5 43.8 0 1 33.5 4.49 91.2 79.5 43.8 0 1 64.7 64.5 91.2 79.5 43.8 0 1-16.8 80.7l-64.5-64.6-64.7-64.3a91.2 79.5 43.8 0 1 47.8-20.8zm-67.3 40.4 62 64.5 62.3 64.3a89.6 77.9 51.6 0 1-78.2 16.4 89.6 77.9 51.6 0 1-62.2-64.5 89.6 77.9 51.6 0 1 16.2-80.7z" fill="url(#radialGradient3)" filter="url(#filter10)" stroke="#000" stroke-linecap="round" stroke-linejoin="bevel"/></svg>
