/* XPM */
static char * xm_information[] = {
"64 64 5 1",
" 	c #ffffff",
".	c #000000",
"+	c #00007f",
"@	c #0000ff",
"#	c #7f7f7f",
"                                                                ",
"                                                                ",
"                         ..+.++++++.+..                         ",
"                     ..+++++@++++++@+++++..                     ",
"                   .+++++@+@++@+@+@++@++++++.                   ",
"                 .+++++@++@++@++@++@+@+@+@++++.                 ",
"               ..+++@+@+@++@+@+@+@++@+@+@+@+@+++.               ",
"              .++@+@+@++@+@+@+@++@+@+@+++@+++@+++.              ",
"            .+++@++@++@++@+@++@+@+@++@+@++@@++@+@++.            ",
"           .+++@++@+@+@+@+@+@+@+@+@+@+@+@@+++@+@++++.           ",
"          .+++@+@+@++@+@+@+@+@+@+@+@+@+@++@@+@++@+@++.          ",
"         .++@++@++@+@+@+@++@+@+@+@+@+@+@+@++@++@+@++++.         ",
"        .++++@++@+@+@+@+@+@+@#####@+@+@+@+@+@+@++@+@+@+.        ",
"        +++@+@+@+@++@+@+@+@#       ##+@+@+@+@+@+@+@+@+++.       ",
"       .++@+@+@+@+@+@+@+@+@#        #@+@+@+@+@+@+++@++@+.       ",
"      .++@+@+++@+@+@+@+@+@#         #++@+@+@+@+@+@@++@+@+.      ",
"      ++@+++@@+@+@+@+@+@@+#         #+@+@+@+@+@+@++@+++@++.     ",
"     .+@++@@+++@+@+@+@+@+@#         #++@+@@+@+@+@+@+@+@+@++     ",
"    .+++@+++@@+@+@+@@+@+@+#         #++@+@+@+@+@+@+@+@+++++.    ",
"    ++@+@+@@+@+@+@+@+@@+@@#         #+++@@+@+@+@+@+@+@+@+@++    ",
"    +++@+@++@+@+@+@+@+@@+@+#       #++@@+@@+@+@+@+@+@+@+@+++.   ",
"   .+@++@++@+@+@+@+@@+@+@+@@#######++++@+@+@+@@+@+@+@++@++@+.   ",
"   +++@++@+@+@+@+@@+@@+@@@+@+++++++++@@+@@+@@+@+@+@+@+@+@+@++   ",
"  .+@+@+@+@+@+@+@+@+@+@##############+@@+@@+@+@+@+@+@+@++@+++.  ",
"  .++++@+@+@+@+@+@+@@@@#            #@+@@+@@+@@+@+@+@++@++@+@.  ",
"  ++@+@+@++@+@+@@+@@++@#            #++@+@@+@@+@+@+@+@@+@+@+++  ",
"  +++@++@+@+@+@+@@+@@@+#            #+@@@+@@+@@+@@+@+++@+@+@++  ",
"  ++@++@+@+@+@+@+@+@+@@####         #+++@@+@+@+@@+@+@@+@+@++++  ",
" .+++@+@+@+@+@+@+@@+@+@+@+#         #+@@@+@@@+@+@+@+@+@++@+@++. ",
" .++@+@+@+@+@+@+@@+@@@@@@@#         #+++@@+@+@@+@+@+@+@+@+@+@+. ",
" .+@+++@++@+@@+@+@+@+@+@+@#         #+@@@+@@@+@@+@+@+@+@+++@+@. ",
" .+++@+@+@+@+@+@@+@@@+@@@@#         #+@+@@+@+@@+@@+@+@+@+@@+++. ",
" .+@+@++@+@+@+@+@@+@+@@+@+#         #++@@@@@+@+@+@+@+@++@++@+@+ ",
" .++@+@+@+@+@+@+@+@+@@+@@@#         #++@+@+@@+@@+@+@+@+@+@++@+. ",
" .+@++@+@+@+@+@@+@@@+@@+@+#         #+@@@+@+@@+@@+@+@+@+@+@+++. ",
" .++@+@++@+@+@+@+@+@@+@@@@#         #+++@@@@+@+@+@+@+@+@++@+@+. ",
"  ++++@+@+@+@+@+@+@+@@+@+@#         #+@@+@+@@@+@+@@+@+@+@++@++. ",
"  +@+@++@+@+@+@+@@+@@+@@@@#         #+@+@@@+@+@@+@+@+@++@+@+++  ",
"  .+@+@++@+@+@+@+@@+@@+@+@#         #++@@+@@+@+@+@+@+@+@+@+@++  ",
"  ++++@+@+@+@+@+@+@+@+@+@@#         #++@+@+@+@@+@+@+@+@+@+++@.  ",
"  .++@++@++@+@+@@+@@+@@@+@#         #+@@@@@+@+@@+@+@+@++@+@++.  ",
"   +++@+@+@+@+@+@+@+@+@+@@#         #+++@++@@@+@+@+@+@+@+@+++   ",
"   .+@++@+@+@+@+@+@@+@@+@+#         #+@@+@@++@+@+@+@++@+++@++   ",
"   .+++@+@++@+@+@+@+@@+@@@#         #+++@@+@@@+@+@+@+@+@+@++.   ",
"    ++@+++@+@+@+@+@+@+@+@+#         #+@@+@+@++@+@+@+@+@+@+++    ",
"    .++@+@+@+@+@+@+@+@+@+@#         #+++@+@+@@+@+@+@+@+++@+.    ",
"     .++@++@++@+@+@+@+@#####        #####+@+@+@+@+@+++@+@++     ",
"     .+@+@+@+@+@+@+@+@+#                #+@+@+@+@+@+@+@+++.     ",
"      .+++@++@+@+@+@+@+#                #+@+@+@++@+@+@++++      ",
"       .@++@+@++@+@+@+@#                #+++@+@+@+@+++@++       ",
"       .++@++@+@+@+@+@+##################+@+@+@+@++@+@++.       ",
"        .+++@++@++@+@+@+@+++++++++++++++++++@+@++@+@+++.        ",
"         .+++@++@++@+@+@+++++++++++++++++@+@+@+@++@++++         ",
"          .+@++@+@+@++@+@+@@@@+@@@@@@@+@@+@+@+++@++@+.          ",
"           .++@++@++@++@+@+++@+@++++++@++@++@+@+@+@..           ",
"            .++@++@+@+@+@+@+@+@++@+@@+@+@+@+@++@++.+            ",
"              .++@+++@+++@+@++@+@+@++@++@++@++@+++.             ",
"               .++@+@+@+@+@++@+@+@++@++@+@++@+++.               ",
"                 .+++++@+++@++@++@+@+@++++@+++.                 ",
"                   .++@++@+@+@++@+++@++@@+++.                   ",
"                     ..+++++@++@+@+@++@+.+.                     ",
"                        ..+.+++++++.++..                        ",
"                                                                ",
"                                                                "};
