/* XPM */
static char * xm_question[] = {
"64 64 5 1",
" 	c #FFFFFF",
".	c #000000",
"+	c #666666",
"@	c #999999",
"#	c #007F00",
"                                                                ",
"                   ...................                          ",
"                 ..+++++++++++++++++++.                         ",
"                ..+@@@@@@@@@@@@@@@@@@@+..                       ",
"              ...+@@@@@@@@@@@@@@@@@@@@@@+..                     ",
"             ..+@@@@@@@@@@@@@@@@@@@@@@@@@@+..                   ",
"            ..+@@@@@@@@@@@@@@@@@@@@@@@@@@@@@+.                  ",
"           ..+@@@@@@@@@@@@@@@@@@@@@@@@@@@@@@@+.                 ",
"          ..+@@@@@@@@@@@@@@@@@@@@@@@@@@@@@@@@@+.                ",
"         ..+@@@@@@@@@@@@@@@@@@@@@@@@@@@@@@@@@@@+.               ",
"        ..+@@@@@@@@@@@@@@@@@@@@@@@@@@@@@@@@@@@@@+.              ",
"       ..+@@@@@@@@@@@@@@@@@@@@@@@@@@@@@@@@@@@@@@@+.             ",
"      ..+@@@@@@@@@@@@@@@@@@@@@@@@@@@@@@@@@@@@@@@@@+.            ",
"     .+@@@@@@@@@@@@@@@@@@@@@@@@@@@@@@@@@@@@@@@@@@@@+.           ",
"    .+@@@@@@@@@@@@@@@@@@@@@@@@@@@@@@@@@@@@@@@@@@@@@@.           ",
"   .+@@@@@@@@@@@@@@@@@@@@@@@@@@@@@@@@@@@@@@@@@@@@@@@+.          ",
"   .+@@@@@@@@@@@@@@@@@@@@@@++++++++++++++@@@@@@@@@@@+.          ",
"   .+@@@@@@@@@@@@@@@@@@@@@+#############++@@@@@@@@@@+.          ",
"   .+@@@@@@@@@@@@@@@@@@@@+###############++@@@@@@@@@@+.         ",
"   .+@@@@@@@@@@@@@@@@@@@+#################++@@@@@@@@@+.         ",
"   .+@@@@@@@@@@@@@@@@@@+###################+@@@@@@@@@+.         ",
"   .+@@@@@@@@@@@@@@@@@@+#####++++++++######+@@@@@@@@@@+.        ",
"   .+@@@@@@@@@@@@@@@@@@+#####+@@@@@@@+#####+@@@@@@@@@@@+.       ",
"   .+@@@@@@@@@@@@@@@@@@+#####+@@@@@@@+#####+@@@@@@@@@@@@+.      ",
"   .+@@@@@@@@@@@@@@@@@@+#####+@@@@@@@+#####+@@@@@@@@@@@@@+.     ",
"   .+@@@@@@@@@@@@@@@@@@+#####+@@@@@@@+#####+@@@@@@@@@@@@@@+.    ",
"   .+@@@@@@@@@@@@@@@@@@+#####+@@@@@@@+#####+@@@@@@@@@@@+@@@+.   ",
"   .+@@@@@@@@@@@@@@@@@@@+++++@@@@@@@++####++@@@@@@@@@@@++@@@.   ",
"   .+@@@@@@@@@@@@@@@@@@@@@@@@@@@@@@++####++@@@@@@@@@@@@+++@@.   ",
"   .+@@@@@@@@@@@@@@@@@@@@@@@@@@@@@++####++@@@@@@@@@@@@@@@@@@.   ",
"    .+@@@@@@@@@@@@@@@@@@@@@@@@@@@++####++@@@@@@@@@@@@@+......   ",
"    .+@@@@@@@@@@@@@@@@@@@@@@@@@@+#####++@@@@@@@@@@@@@+.         ",
"    .+@@@@@@@@@@@@@@@@@@@@@@@@@+#####++@@@@@@@@@@@@@+.          ",
"     .+@@@@@@@@@@@@@@@@@@@@@@@+#####++@@@@@@@@@@@@@@+.          ",
"     .+@@@@@@@@@@@@@@@@@@@@@@@+#####+@@@@@@@@@@@@@@@+.          ",
"      .+@@@@@@@@@@@@@@@@@@@@@@+#####+@@@@@@@@@@@@@@@@+.         ",
"      .+@@@@@@@@@@@@@@@@@@@@@@+#####+@@@@@@@@@@@@@@@@@.         ",
"      .++@@@@@@@@@@@@@@@@@@@@@@+###++@@@@@@@@@@@@@@@@@.         ",
"       .++@@@@@@@@@@@@@@@@@@@@@@++++@@@@@@@@@@@@@@@@@+.         ",
"        .++@@@@@@@@@@@@@@@@@@@@@@@@@@@@@@@@@@@@@@@@@+.          ",
"         .++@@@@@@@@@@@@@@@@@@@@@@@@@@@@@@@@@@@@@@@+.           ",
"          .++@@@@@@@@@@@@@@@@@@#####@@@@@@@@@@@@@@@+.           ",
"           .++@@@@@@@@@@@@@@@@@#####+@@@@@@@@@@@@@@+.           ",
"            .++@@@@@@@@@@@@@@@@#####+@@@@@@@@@@@@@@+.           ",
"             .++@@@@@@@@@@@@@@@#####+@@@@@@@@@@@@@@+.           ",
"              .++@@@@@@@@@@@@@@#####+@@@@@@@@@@@@@@+.           ",
"               .++@@@@@@@@@@@@@@+++++@@@@@@@@@@@@@@+.           ",
"                .+@@@@@@@@@@@@@@@@@@@@@@@@@@@@@@@@@+.           ",
"                 .+@@@@@@@@@@@@@@@@@@@@@@@@@@@@@@@@+.           ",
"                  .+@@@@@@@@@@@@@@@@@@@@@@@@@@@@@++.            ",
"                  .+@@@@@@@@@@@@@@@@@@@@@@@++.......            ",
"                  .+@@@@@@@@@@@@@@@@@@@@@@@+.                   ",
"                  .+@@@@@@@@@@@@@@@@@@@@@@@+.                   ",
"                  .+@@@@@@@@@@@@@@@@@@@@@@@+.                   ",
"                  .+@@@@@@@@@@@@@@@@@@@@@@@+.                   ",
"                  .+@@@@@@@@@@@@@@@@@@@@@@@+.                   ",
"                 .+@@@@@@@@@@@@@@@@@@@@@@@@+.                   ",
"                 .+@@@@@@@@@@@@@@@@@@@@@@@@+.                   ",
"                 .+@@@@@@@@@@@@@@@@@@@@@@@@+.                   ",
"                 .+@@@@@@@@@@@@@@@@@@@@@@@@+.                   ",
"                 .+@@@@@@@@@@@@@@@@@@@@@@@+.                    ",
"                 ..+++++++++++++++++++++++.                     ",
"                  ........................                      ",
"                                                                "};
