<?xml version="1.0" encoding="UTF-8"?>
<!DOCTYPE svg PUBLIC "-//W3C//DTD SVG 1.1//EN" "http://www.w3.org/Graphics/SVG/1.1/DTD/svg11.dtd">
<svg width="256" height="256" version="1.1" viewBox="0 0 256 256" xmlns="http://www.w3.org/2000/svg" xmlns:xlink="http://www.w3.org/1999/xlink"><defs><linearGradient id="linearGradient44" x1="12.6" x2="242" y1="126" y2="126" gradientTransform="translate(1.17 2.18)" gradientUnits="userSpaceOnUse"><stop stop-color="#242424" stop-opacity=".667" offset="0"/><stop stop-color="#eee" stop-opacity=".667" offset="1"/></linearGradient><linearGradient id="linearGradient11" x1="117" x2="184" y1="104" y2="105" gradientTransform="translate(-12.5 -3.1)" gradientUnits="userSpaceOnUse"><stop stop-color="#338000" offset="0"/><stop stop-color="#338000" stop-opacity=".533" offset="1"/></linearGradient><filter id="filter16" x="-.114" y="-.0745" width="1.32" height="1.21" color-interpolation-filters="sRGB"><feFlood flood-color="rgb(0,0,0)" flood-opacity=".498" in="SourceGraphic" result="flood"/><feGaussianBlur in="SourceGraphic" result="blur" stdDeviation="3.000000"/><feOffset dx="6.000000" dy="6.000000" in="blur" result="offset"/><feComposite in="flood" in2="offset" operator="in" result="comp1"/><feComposite in="SourceGraphic" in2="comp1" result="comp2"/></filter><radialGradient id="radialGradient16" cx="116" cy="131" r="108" gradientTransform="matrix(-.532 -1.11 .919 -.439 73.6 325)" gradientUnits="userSpaceOnUse"><stop stop-color="#aaa" offset="0"/><stop stop-color="#666" offset="1"/></radialGradient></defs><g stroke="#000"><path id="shading" d="m68.8 242c1.18-14.6 12.1-28.8 4.02-43.5-7.19-16.3-26.2-21.7-36.1-35.9-8.81-11.3-14.9-24.6-20.1-37.9-6.99-20.1-0.136-41.7 8.23-60.2 11.2-22.4 29.4-42.6 53-51.9 20-6.42 41.6-5.16 62.2-3.79 29.6 6.14 55.6 26.5 70.3 52.7 3.39 13.6 6.6 28.8 21.1 34.6 9.49 3.76 17.8 24 1.38 22.1-13.1-2.36-30.3 13.7-17.7 24.7 6.53 13.1-18.1 22.8-6.69 36.3 6.3 15.3-9.39 22.8-21.8 20.8-13.8 1.99-16.2 17.5-12.3 28.5 5.74 12.3-4.96 20.1-16.7 18.5-22.1 2.11-44.3 0.924-66.4 1.08-7.53 0.132-18.6 2.41-22.4-6.05z" fill="url(#linearGradient44)" stroke-linecap="round" stroke-linejoin="bevel"/><path id="outline" d="m71 236c6.58-13.7 11.3-30.8 2.44-44.6-9.29-13.5-26.1-19.3-34.8-33.5-7.5-11.5-13.6-24.1-17.7-37.2-4.67-23.9 5.11-48.3 18.3-67.8 13.7-19.9 34.9-36.4 59.8-37.4 13.7-0.729 27.6-1.31 41.1 0.925 26.6 6.44 49.7 25.2 63.1 48.9 3.39 13 6.37 28.2 20.6 33.6 9.37 0.967 20.4 17.5 4.48 16.4-9.84 0.877-23.1 3.72-24.4 15.5 1.89 10.4 10.1 23.9-3.35 29.7-5.94 9.77 10.9 32.3-8.01 32-14 0.936-30.3 10.6-29.2 26.5-0.92 8.84 10.9 20.8-3.75 21-14.4 2.5-29.1 1.37-43.7 1.79-14.4-0.363-29.2 1.02-43.2-1.89-1.21-0.905-1.92-2.49-1.65-4z" fill="url(#radialGradient16)" stroke-width=".0585" style="mix-blend-mode:normal"/><path transform="matrix(1.18 0 0 1.17 -38.7 6.04)" d="m120 51c-3.52 3.45-7.36 6.7-10.7 10.3-1.36 4.05-3.17 8.07-4.26 12.1 0.94 4.47 1.88 8.95 2.81 13.4 2.38 0.801 4.76 2.22 7.15 2.65 2.23-0.897 4.46-1.79 6.69-2.69 1.31-6.93 2.62-13.9 3.92-20.8h26.1c0.465 6.67 0.933 13.3 1.4 20-7.23 7.43-14.5 14.9-21.7 22.3v13.5c2.81 0.932 5.6 3.09 8.6 2.67 1.66-1.3 3.77-2.29 5.16-3.79 1.26-4.12 2.19-8.43 3.65-12.4 7.28-7.87 14.6-15.7 21.9-23.6v-19.9c-4.37-4.58-8.75-9.17-13.1-13.8-12.5-4e-5 -25 3.1e-5 -37.6 2.12e-4zm12.3 81.6c-2.57 0.732-1.16 4.07-1.52 6.07 0.0782 4.03-0.157 8.09 0.12 12.1 1.42 1.79 4.15 0.644 6.18 0.971 2.72-0.0801 5.48 0.162 8.18-0.125 1.71-1.5 0.615-4.19 0.926-6.24-0.0776-3.93 0.156-7.89-0.119-11.8-1.41-1.8-4.14-0.647-6.17-0.975h-7.59z" fill="url(#linearGradient11)" filter="url(#filter16)" stroke-width=".611"/></g></svg>
