/* XPM */
static char * xm_working[] = {
"64 64 5 1",
" 	c #ffffff",
".	c #372314",
"#	c #806959",
"+	c #e9b057",
"@  c #bab9ba",
"                                                                ",
"                                                                ",
"                     ........................                   ",
"                  ...............................               ",
"              .....................................             ",
"            ..........................................          ",
"           ............................................         ",
"          ..............................................        ",
"         ................................................       ",
"        ..................................................      ",
"        ..................................................      ",
"        ..................................................      ",
"        .................................................       ",
"         ................................................       ",
"          ..............................................        ",
"          .............................................         ",
"            ..........................................          ",
"            ..........................................          ",
"            ..........................................          ",
"            ..........................................          ",
"            ...... @@@@          +++++++++++@@@ ......          ",
"            ...... @@@@        +++++++++++++@@@ ......          ",
"            ...... @@@@      +++++++++++++++@@@ ......          ",
"            ...... @@@@@    ++++++++++++++++@@@ ......          ",
"            ......  @@@@@@++++++++++++++++++@@  ......          ",
"            ......   @@@@@+++++++++++++++++@@   ......          ",
"            ......    @@@@@++++++++++++++++@@   ......          ",
"            ......     @@@@@++++++++++++++@@    ......          ",
"            ......       @@@++++++++++++@@      ......          ",
"            ......         @@@+++++++++@@       ......          ",
"            ......          @@++++++++@@        ......          ",
"            ......           @+++++++@          ......          ",
"            ......            @+++++@           ......          ",
"            ......          @@@++++@            ......          ",
"            ......         @@@@+++@@@@          ......          ",
"            ......       @@@@@@+++@@@@@         ......          ",
"            ......      @@@@@@@++++@@@@@@       ......          ",
"            ......     @@@@@@@ ++++  @@@@@@     ......          ",
"            ......    @@@@@@   ++++   @@@@@@    ......          ",
"            ......   @@@@@@    ++++     @@@@@   ......          ",
"            ......  @@@@@@     ++++      @@@@@  ......          ",
"            ......  @@@@@      ++++       @@@@  ......          ",
"            ...... @@@@@       ++++        @@@@ ......          ",
"            ...... @@@@        ++++         @@@ ......          ",
"            ...... @@@@         ++          @@@ ......          ",
"            ...... @@@                       @@ ......          ",
"            ...... @@@                       @@ ......          ",
"            ...... @@@                       @@ ......          ",
"            .......@@@.......................@@.......          ",
"            .......@@@.......................@@.......          ",
"            .......@@@.......................@@.......          ",
"           .......#############################........         ",
"         ......#################################........        ",
"         ........################################........       ",
"        ...........############################...........      ",
"        ..................................................      ",
"        .................................................       ",
"         ................................................       ",
"          ..............................................        ",
"           ............................................         ",
"              ......................................            ",
"                 ...............................                ",
"                       ...................                      ",
"                                                                "};
