<?xml version="1.0" encoding="UTF-8"?>
<!DOCTYPE svg PUBLIC "-//W3C//DTD SVG 1.1//EN" "http://www.w3.org/Graphics/SVG/1.1/DTD/svg11.dtd">
<!--
	Motif

	Copyright (c) 2025 Tim Hentenaar
	SPDX-License-Identifier: CC-BY-SA-4.0
-->
<svg width="256" height="256" version="1.1" viewBox="0 0 256 256" xmlns="http://www.w3.org/2000/svg" xmlns:xlink="http://www.w3.org/1999/xlink"><defs><filter id="filter232" x="-.0996" y="-.0078" width="1.27" height="1.02" color-interpolation-filters="sRGB"><feFlood flood-color="rgb(102,102,0)" flood-opacity=".498" in="SourceGraphic" result="flood"/><feGaussianBlur in="SourceGraphic" result="blur" stdDeviation="3.000000"/><feOffset dx="5.000000" dy="3.000000" in="blur" result="offset"/><feComposite in="flood" in2="offset" operator="in" result="comp1"/><feComposite in="SourceGraphic" in2="comp1" result="comp2"/></filter><linearGradient id="wood" x1="912" x2="985" y1="1261" y2="1261" gradientTransform="matrix(.96 0 0 .96 727 -789)" gradientUnits="userSpaceOnUse"><stop stop-color="#3C2516" offset="0"/><stop stop-color="#806D64" offset=".174"/><stop stop-color="#806D64" offset=".26"/><stop stop-color="#372314" offset=".545"/><stop stop-color="#372314" offset=".611"/><stop stop-color="#806959" offset=".832"/><stop stop-color="#372314" offset=".982"/></linearGradient><filter id="filter232-9" x="-.0996" y="-.00698" width="1.27" height="1.02" color-interpolation-filters="sRGB"><feFlood flood-color="rgb(102,102,0)" flood-opacity=".498" in="SourceGraphic" result="flood"/><feGaussianBlur in="SourceGraphic" result="blur" stdDeviation="3.000000"/><feOffset dx="5.000000" dy="3.000000" in="blur" result="offset"/><feComposite in="flood" in2="offset" operator="in" result="comp1"/><feComposite in="SourceGraphic" in2="comp1" result="comp2"/></filter><filter id="filter232-1" x="-.0234" y="-.00773" width="1.06" height="1.02" color-interpolation-filters="sRGB"><feFlood flood-color="rgb(102,102,0)" flood-opacity=".498" in="SourceGraphic" result="flood"/><feGaussianBlur in="SourceGraphic" result="blur" stdDeviation="3.000000"/><feOffset dx="5.000000" dy="3.000000" in="blur" result="offset"/><feComposite in="flood" in2="offset" operator="in" result="comp1"/><feComposite in="SourceGraphic" in2="comp1" result="comp2"/></filter><linearGradient id="linearGradient5" x1="801" x2="893" y1="424" y2="424" gradientUnits="userSpaceOnUse" xlink:href="#wood"/><linearGradient id="linearGradient7" x1="102" x2="148" y1="79.5" y2="79.5" gradientTransform="matrix(3.97 0 0 3.88 -370 -267)" gradientUnits="userSpaceOnUse" xlink:href="#wood"/><linearGradient id="linearGradient8" x1="102" x2="148" y1="79.5" y2="79.5" gradientTransform="matrix(3.97 0 0 3.88 -363 -90.3)" gradientUnits="userSpaceOnUse" xlink:href="#wood"/><linearGradient id="linearGradient9" x1="102" x2="148" y1="79.5" y2="79.5" gradientTransform="matrix(3.05 0 0 2.03 -243 49.9)" gradientUnits="userSpaceOnUse" xlink:href="#wood"/><radialGradient id="g-sand" cx="582" cy="1022" r="182" fx="477" fy="1041" gradientTransform="matrix(.96 0 0 .96 727 -789)" gradientUnits="userSpaceOnUse"><stop stop-color="#BC802F" offset=".234"/><stop stop-color="#CF943F" offset=".438"/><stop stop-color="#E2A850" offset=".705"/><stop stop-color="#E9B057" offset=".893"/></radialGradient><filter id="filter232-6" x="-.017" y="-.0137" width="1.05" height="1.03" color-interpolation-filters="sRGB"><feFlood flood-color="rgb(102,102,0)" flood-opacity=".498" in="SourceGraphic" result="flood"/><feGaussianBlur in="SourceGraphic" result="blur" stdDeviation="3.000000"/><feOffset dx="5.000000" dy="3.000000" in="blur" result="offset"/><feComposite in="flood" in2="offset" operator="in" result="comp1"/><feComposite in="SourceGraphic" in2="comp1" result="comp2"/></filter><linearGradient id="linearGradient10" x1="912" x2="985" y1="1261" y2="1261" gradientTransform="matrix(.96 0 0 .96 727 -789)" gradientUnits="userSpaceOnUse" xlink:href="#wood"/><filter id="filter17" x="-.042" y="-.0337" width="1.11" height="1.08" color-interpolation-filters="sRGB"><feFlood flood-color="rgb(102,102,0)" flood-opacity=".498" in="SourceGraphic" result="flood"/><feGaussianBlur in="SourceGraphic" result="blur" stdDeviation="3.000000"/><feOffset dx="5.000000" dy="3.000000" in="blur" result="offset"/><feComposite in="offset" in2="flood" operator="in" result="comp1"/><feComposite in="SourceGraphic" in2="comp1" result="comp2"/></filter></defs><g filter="url(#filter17)"><ellipse transform="matrix(1 0 -.0333 .999 0 0)" cx="134" cy="219" rx="91.9" ry="22.2" fill="url(#linearGradient8)" stroke="#000" stroke-linecap="round" stroke-linejoin="bevel" stroke-width="1.04"/><ellipse transform="matrix(1 0 -.0489 .999 0 0)" cx="138" cy="212" rx="70.5" ry="11.6" fill="url(#linearGradient9)" stroke="#000" stroke-linecap="round" stroke-linejoin="bevel" stroke-width=".658"/><path id="l_support" transform="matrix(.16 0 0 .161 -78.5 70.5)" d="m879-62.2c-6.93 331-8.7 662 1.39 993-86.9 38.9-75-83.5-66.1-133 8.46-297 5.24-594-1.76-891 22.2 10.6 44.3 21.2 66.5 31.8z" fill="url(#linearGradient5)" filter="url(#filter232)"/><path id="r_support" transform="matrix(.16 0 0 .161 -64.2 68.5)" d="m1603-62.2c6.94 331 8.68 662-1.36 993 86.9 38.9 75-83.5 66.1-133-8.46-297-5.27-594 1.73-892-22.2 10.6-44.3 21.2-66.5 31.9z" fill="url(#linearGradient10)" filter="url(#filter232-9)"/><path id="l_glass" transform="matrix(.16 0 0 .161 -70.7 70.7)" d="m921 701c6.56-120 109-201 203-260 75.2-15.4 121-130 40.1-170-72.1-50.7-165-78.6-212-159-34.5-39.7-13-141-42.5-155-30.7 61.6 11.7 137 48.1 188 63.8 71.3 169 89.4 229 164 39.7 87.7-75.4 128-132 167-93.7 61.1-179 169-152 287 10.7 50.2 50.7 125 101 126-35.5-51.6-84.3-98.6-83-168l-0.696-10z" enable-background="new    " fill="#1a171b" filter="url(#filter232-1)" opacity=".5"/><path id="r_glass" transform="matrix(.16 0 0 .161 -70.7 70.4)" d="m1405 230c89.1-39.7 173-121 175-224 14.7-34.9-21-72.1-9.41-15.5 0.684 100-68.7 191-160 226-59.6 31.9-177 77.1-136 164 50.8 72.6 144 96 208 155 107 82.3 116 268 3.04 349 53.3-4.27 83.6-78.5 92.4-128 18.3-109-49.9-216-144-268-57.3-44.2-194-83-148-177 28.9-40.8 78.3-58.6 120-81.9z" enable-background="new    " fill="#1a171b" filter="url(#filter232)" opacity=".3"/><ellipse cx="127" cy="41.3" rx="91.9" ry="29.9" fill="url(#linearGradient7)" stroke="#000" stroke-linecap="round" stroke-linejoin="bevel" stroke-width="1.04"/><path id="sand" transform="matrix(.156 0 0 .161 -66.5 71.1)" d="m1284 240c-64 0.0173-143 28.1-195-22.5 5.42-62.8 95-77.9 145-99.2 82.5-27.2 172-40.3 258-28.1 64.6 58.8-52 114-103 126-34.5 11-70.1 18.2-106 23.7zm-34.9 340c9.45-86.4-7.39-177 21-260 44.5-80.4 148-87.9 210-148-109 67.4-244 85.8-369 65.6 76.5 29.1 123 113 109 193 1.86 50.3 4.45 101 7.63 151m0.017 0c-11.7 34.7 33.9 39.9 21.2-1.5" fill="url(#g-sand)" filter="url(#filter232-6)"/></g></svg>
