<?xml version="1.0" encoding="UTF-8"?>
<!DOCTYPE svg PUBLIC "-//W3C//DTD SVG 1.1//EN" "http://www.w3.org/Graphics/SVG/1.1/DTD/svg11.dtd">
<svg width="256" height="256" version="1.1" viewBox="0 0 256 256" xmlns="http://www.w3.org/2000/svg" xmlns:xlink="http://www.w3.org/1999/xlink"><defs><radialGradient id="radialGradient6670" cx="127" cy="-3.38" r="130" gradientTransform="matrix(-.84 .829 -.953 -.725 221 -108)" gradientUnits="userSpaceOnUse"><stop stop-color="#ff0" offset=".738"/><stop stop-color="#a80" stop-opacity=".498" offset="1"/></radialGradient><filter id="filter79" x="-.178" y="-.0436" width="1.48" height="1.11" color-interpolation-filters="sRGB"><feFlood flood-color="rgb(102,102,0)" flood-opacity=".498" in="SourceGraphic" result="flood"/><feGaussianBlur in="SourceGraphic" result="blur" stdDeviation="3.000000"/><feOffset dx="5.000000" dy="3.000000" in="blur" result="offset"/><feComposite in="flood" in2="offset" operator="in" result="comp1"/><feComposite in="SourceGraphic" in2="comp1" result="comp2"/></filter><filter id="filter9" x="-.0282" y="-.0322" width="1.08" height="1.08" color-interpolation-filters="sRGB"><feFlood flood-color="rgb(102,102,0)" flood-opacity=".498" in="SourceGraphic" result="flood"/><feGaussianBlur in="SourceGraphic" result="blur" stdDeviation="3.000000"/><feOffset dx="5.000000" dy="3.000000" in="blur" result="offset"/><feComposite in="flood" in2="offset" operator="in" result="comp1"/><feComposite in="SourceGraphic" in2="comp1" result="comp2"/></filter></defs><g stroke="#000" stroke-linecap="round" stroke-linejoin="bevel"><path transform="matrix(.942 0 0 1.07 17.3 158)" d="m247 83.4-260-1.86 132-224z" fill="url(#radialGradient6670)" filter="url(#filter9)" stroke-width=".284"/><path transform="matrix(1.04 0 0 1.07 -4.92 -14)" d="m115 200h29.8v31.2h-29.8zm-4.29-65.1c-1.21-18-3.84-36.6 1.46-54.2 2.17-5.91 4.94-12.3 10.2-16 6.5-3.4 16.4-1.05 19.2 6.2 9.45 18.9 9.37 40.8 8.12 61.4-1.31 17.7-4.3 35.2-8.16 52.5-6.9 2.49-15.4 4.98-22.2 0.99-3.87-4.51-3.51-11.2-4.84-16.8-1.69-11.3-2.55-22.7-3.76-34z" filter="url(#filter79)" stroke-width=".265"/></g></svg>
