/* XPM */
static char * xm_warning_xpm[] = {
"64 64 5 1",
" 	c #FFFFFF",
".	c #000000",
"&	c #DCDC00",
"+	c #7F7F00",
"@	c #FFFF00",
"                                                                ",
"                                ....                            ",
"                               .++++                            ",
"                               +++++.                           ",
"                              .+@@@++                           ",
"                              +@@@@@+.                          ",
"                             .++@@@@++                          ",
"                             ++&@@@+.+.                         ",
"                            .&&&&&@++++                         ",
"                           .+&&&&&&&+.+.                        ",
"                           +&&&&&&&&&+++                        ",
"                          .&&&&&&&&&&+.+.                       ",
"                          +&&&&&&&&&&&+++                       ",
"                         .&&&&&+++&&&&+.+.                      ",
"                         +&&&+....++&&&+++                      ",
"                        .&&&&+.....+&&&+++.                     ",
"                        +&&&+.......+&&&+.+                     ",
"                       .&&&&+.......+&&&+++&                    ",
"                       +&&&+........++&&&+.+                    ",
"                      .&&&&+.........+&&&+++&                   ",
"                      +&&&&+.........+&&&&+.+                   ",
"                     .&&&&&+.........+&&&&+++&                  ",
"                     +&&&&&+.........+&&&&&+.+                  ",
"                    .&&&&&&+.........+&&&&&+.+&                 ",
"                    +&&&&&&+.........+&&&&&&++.                 ",
"                   .&&&&&&&+.........+&&&&&&+++&                ",
"                   +&&&&&&&+.........+&&&&&&&+.+                ",
"                  .&&&&&&&&+.........+&&&&&&&+++&               ",
"                  +&&&&&&&&+.........+&&&&&&&&+.+               ",
"                 .&&&&&&&&&+.........+&&&&&&&&+.+&              ",
"                 +&&&&&&&&&+.........+&&&&&&&&&++.              ",
"                .&&&&&&&&&&+.........+&&&&&&&&&+++&             ",
"                +&&&&&&&&&&+.........+&&&&&&&&&&+.+             ",
"               .&&&&&&&&&&&+.........+&&&&&&&&&&+++&            ",
"               +&&&&&&&&&&&+.........+&&&&&&&&&&&+.+            ",
"              .&&&&&&&&&&&&+.........+&&&&&&&&&&&+.+&           ",
"              +&&&&&&&&&&&&+.........+&&&&&&&&&&&&++.           ",
"             .&&&&&&&&&&&&&+.........+&&&&&&&&&&&&+++&          ",
"            .+&&&&&&&&&&&&&+.........+&&&&&&&&&&&&&+.+          ",
"            +&&&&&&&&&&&&&&++........+&&&&&&&&&&&&&+++&         ",
"           .&&&&&&&&&&&&&&&++.......++&&&&&&&&&&&&&&+.+         ",
"           +&&&&&&&&&&&&&&&++.......++&&&&&&&&&&&&&&+.+&        ",
"          .&&&&&&&&&&&&&&&&++.......++&&&&&&&&&&&&&&&++.        ",
"          +&&&&&&&&&&&&&&&&&+.......+&&&&&&&&&&&&&&&&+++&       ",
"         .&&&&&&&&&&&&&&&&&&+.......+&&&&&&&&&&&&&&&&&+.+       ",
"        .+&&&&&&&&&&&&&&&&&&&+.....+&&&&&&&&&&&&&&&&&&+++&      ",
"        +&&&&&&&&&&&&&&&&&&&&+++++++&&&&&&&&&&&&&&&&&&&+.+      ",
"       .&&&&&&&&&&&&&&&&&&&&&&&&&&&&&&&&&&&&&&&&&&&&&&&+.+&     ",
"       +&&&&&&&&&&&&&&&&&&&&&&&&&&&&&&&&&&&&&&&&&&&&&&&&++.     ",
"      .&&&&&&&&&&&&&&&&&&&&&&&&&&&&&&&&&&&&&&&&&&&&&&&&&+++&    ",
"      +&&&&&&&&&&&&&&&&&&&&&+.......+&&&&&&&&&&&&&&&&&&&&+.+    ",
"     .&&&&&&&&&&&&&&&&&&&&&&+.......+&&&&&&&&&&&&&&&&&&&&+++&   ",
"     +&&&&&&&&&&&&&&&&&&&&&&+.......+&&&&&&&&&&&&&&&&&&&&&+.+   ",
"    .&&&&&&&&&&&&&&&&&&&&&&&+.......+&&&&&&&&&&&&&&&&&&&&&+.+.  ",
"    +&&&&&&&&&&&&&&&&&&&&&&&+.......+&&&&&&&&&&&&&&&&&&&&&&+++  ",
"   .+&&&&&&&&&&&&&&&&&&&&&&&+.......+&&&&&&&&&&&&&&&&&&&&&&+++. ",
"   +@&&&&&&&&&&&&&&&&&&&&&&&+.......+&&&&&&&&&&&&&&&&&&&&&&@+++ ",
"  .+@@&&&&&&&&&&&&&&&&&&&&&&+.......+&&&&&&&&&&&&&&&&&&&&&@@+++.",
"  ++@@@&&&&&&&&&&&&&&&&&&&&&+++++++++&&&&&&&&&&&&&&&&&&&&@@@+++.",
" .+@@@@@&&&&&&&&&&&&&&&&&&&&&&&&&&&&&&&&&&&&&&&&&&&&&&&&@@@@@++.",
" .+@@@@@&&&&&&&&&&&&&&&&&&&&&&&&&&&&&&&&&&&&&&&&&&&&&&&@@@@@+++.",
" .+++++++++++++++++++++++++++++++++++++++++++++++++++++++++++++.",
" .+++++++++++++++++++++++++++++++++++++++++++++++++++++++++++++.",
"  .............................................................."};
